<svg id="Capa_1" enable-background="new 0 0 512 512" height="512" viewBox="0 0 512 512" width="512" xmlns="http://www.w3.org/2000/svg"><g><path d="m497 452h-482c-8.284 0-15 6.716-15 15v30c0 8.284 6.716 15 15 15h482c8.284 0 15-6.716 15-15v-30c0-8.284-6.716-15-15-15z"/><path d="m211 342h30v80h-30z"/><path d="m401 422v-155c0-24.813-20.187-45-45-45h-200c-24.813 0-45 20.187-45 45v155h70v-95c0-8.284 6.716-15 15-15h120c8.284 0 15 6.716 15 15v95zm-205-140c-8.284 0-15-6.716-15-15s6.716-15 15-15 15 6.716 15 15-6.716 15-15 15zm60 0c-8.284 0-15-6.716-15-15s6.716-15 15-15 15 6.716 15 15-6.716 15-15 15zm60 0c-8.284 0-15-6.716-15-15s6.716-15 15-15 15 6.716 15 15-6.716 15-15 15z"/><path d="m81 267c0-41.355 33.645-75 75-75h200c41.355 0 75 33.645 75 75v155h60v-155c0-74.439-60.561-135-135-135h-85v-57h60c8.284 0 15-6.716 15-15v-45c0-8.284-6.716-15-15-15h-75c-8.284 0-15 6.716-15 15v117h-85c-74.439 0-135 60.561-135 135v155h60z"/><path d="m271 342h30v80h-30z"/></g></svg>